<?xml version="1.0" encoding="UTF-8"?>
<svg width="300px" height="300px" viewBox="0 0 300 300" version="1.1" xmlns="http://www.w3.org/2000/svg" xmlns:xlink="http://www.w3.org/1999/xlink">
    <!-- Generator: Sketch 46 (44423) - http://www.bohemiancoding.com/sketch -->
    <title>TShirt</title>
    <desc>Created with Sketch.</desc>
    <defs></defs>
    <g id="Sketches" stroke="none" stroke-width="1" fill="none" fill-rule="evenodd">
        <g id="TShirt">
            <g id="MainShape" transform="translate(30.000000, 42.000000)">
                <path d="M194.2821,16.5779232 L154.920419,1 L154.011044,1 C145.648568,10.3011442 133.517409,16.1563754 119.998584,16.1563754 C106.479759,16.1563754 94.3476405,10.3011442 85.9765242,1 L85.0671493,1 L45.699281,16.5769011 L45.699281,16.5769011 C43.2381022,17.5507292 40.9947013,19.0034004 39.0991255,20.8507052 L0,58.9541661 L44.8411516,94.6731802 L58.1535785,82.4676099 L58.1535785,216.990662 L120.00096,217 L181.848342,217 L181.848342,82.4769478 L195.142049,94.6825182 L240,58.9539414 L200.877041,20.8474671 L200.877041,20.8474671 C198.982622,19.002268 196.741069,17.5510935 194.2821,16.5779232 Z" stroke="#93969E" stroke-width="2" fill-opacity="0.100769928" fill="#93969E" fill-rule="nonzero" stroke-linecap="round" stroke-linejoin="round"></path>
                <g id="Decorations">
                    <polygon id="Decoration-1" fill="#93969E" opacity="0.5" points="191.586426 91.6064453 236.772949 55.9121094 239.906738 58.7348633 195.107422 94.9584961"></polygon>
                    <polygon id="Decoration-2" fill="#93969E" opacity="0.5" transform="translate(24.746582, 75.435303) scale(-1, 1) translate(-24.746582, -75.435303) " points="0.586425781 91.6064453 45.7729492 55.9121094 48.9067383 58.7348633 4.10742188 94.9584961"></polygon>
                    <path d="M85.8041992,0.977539062 C97.4379883,4.20768229 108.94987,5.82275391 120.339844,5.82275391 C131.729818,5.82275391 142.976888,4.20768229 154.081055,0.977539062" id="Decoration-4" stroke="#93969E" stroke-width="2"></path>
                    <rect id="Decoration-3" fill="#93969E" opacity="0.5" x="58" y="211" width="123" height="6"></rect>
                </g>
            </g>
            <g id="Arrow-4" transform="translate(231.000000, 51.000000)">
                <path d="M-1.62120577,24.9751771 L51.8258482,24.9751771" id="Path" stroke="#9ED0FB" stroke-width="2" transform="translate(25.102321, 24.975177) rotate(45.000000) translate(-25.102321, -24.975177) "></path>
                <path d="M40.7695301,38.9770891 C40.3103153,38.6644623 39.9380482,38.8593974 39.9380482,39.4202247 L39.9380482,46.1994311 C39.9380482,46.7567949 40.3039519,46.9595256 40.7695301,46.6425667 L45.5679244,43.3758888 C46.0271392,43.063262 46.0335026,42.5607259 45.5679244,42.243767 L40.7695301,38.9770891 Z" id="ArrowHead-2" fill="#008AF3" transform="translate(42.938048, 42.810904) rotate(45.000000) translate(-42.938048, -42.810904) "></path>
                <path d="M4.39096933,2.59852835 C3.93175457,2.28590155 3.55948746,2.48083668 3.55948746,3.04166396 L3.55948746,9.82087036 C3.55948746,10.3782342 3.92539119,10.5809649 4.39096933,10.264006 L9.18936372,6.99732807 C9.64857848,6.68470126 9.65494186,6.18216516 9.18936372,5.86520625 L4.39096933,2.59852835 Z" id="ArrowHead-1" fill="#008AF3" transform="translate(6.559487, 6.432343) scale(-1, 1) rotate(45.000000) translate(-6.559487, -6.432343) "></path>
            </g>
            <g id="Arrow-3" transform="translate(70.318462, 64.967058) rotate(-46.000000) translate(-70.318462, -64.967058) translate(15.318462, 49.467058)">
                <path d="M2.5,4.5 L59.6920663,5.69727112 L59.6920663,5.69727112 C61.0326443,5.72533507 62.3538875,6.02271686 63.577212,6.57172901 L103.928419,24.6808277" id="Path" stroke="#9ED0FB" stroke-width="2"></path>
                <path d="M102.52614,20.9855248 C102.066925,20.672898 101.694658,20.8678331 101.694658,21.4286604 L101.694658,28.2078668 C101.694658,28.7652306 102.060562,28.9679613 102.52614,28.6510024 L107.324535,25.3843245 C107.783749,25.0716977 107.790113,24.5691616 107.324535,24.2522027 L102.52614,20.9855248 Z" id="ArrowHead-2" fill="#008AF3" transform="translate(104.694658, 24.819340) rotate(23.000000) translate(-104.694658, -24.819340) "></path>
                <path d="M0.831481878,0.666184992 C0.372267117,0.353558186 0,0.548493314 0,1.1093206 L0,7.88852699 C0,8.44589084 0.36590373,8.64862151 0.831481878,8.33166261 L5.62987626,5.06498471 C6.08909102,4.7523579 6.09545441,4.2498218 5.62987626,3.93286289 L0.831481878,0.666184992 Z" id="ArrowHead-1" fill="#008AF3" transform="translate(3.000000, 4.500000) scale(-1, 1) translate(-3.000000, -4.500000) "></path>
            </g>
            <g id="Arrow-2" transform="translate(146.000000, 58.000000)">
                <path d="M-93.4510101,100.45101 L102.45101,100.45101" id="Path" stroke="#9ED0FB" stroke-width="2" transform="translate(4.500000, 100.451010) rotate(-270.000000) translate(-4.500000, -100.451010) "></path>
                <path d="M2.33148188,193.068205 C1.87226712,192.755578 1.5,192.950514 1.5,193.511341 L1.5,200.290547 C1.5,200.847911 1.86590373,201.050642 2.33148188,200.733683 L7.12987626,197.467005 C7.58909102,197.154378 7.59545441,196.651842 7.12987626,196.334883 L2.33148188,193.068205 Z" id="ArrowHead-2" fill="#008AF3" transform="translate(4.500000, 196.902020) rotate(-270.000000) translate(-4.500000, -196.902020) "></path>
                <path d="M2.33148188,-0.833815008 C1.87226712,-1.14644181 1.5,-0.951506686 1.5,-0.390679397 L1.5,6.38852699 C1.5,6.94589084 1.86590373,7.14862151 2.33148188,6.83166261 L7.12987626,3.56498471 C7.58909102,3.2523579 7.59545441,2.7498218 7.12987626,2.43286289 L2.33148188,-0.833815008 Z" id="ArrowHead--1" fill="#008AF3" transform="translate(4.500000, 3.000000) scale(-1, -1) rotate(-270.000000) translate(-4.500000, -3.000000) "></path>
            </g>
            <g id="Arrow-1" transform="translate(150.000000, 122.500000) rotate(-360.000000) translate(-150.000000, -122.500000) translate(89.000000, 109.000000)">
                <path d="M0,13.1 C0,20.2797017 27.3106303,26.1 61,26.1 L61,26.1 C94.6893697,26.1 122,20.2797017 122,13.1" id="Path--Front" stroke="#9ED0FB" stroke-width="2"></path>
                <path d="M122,13.1 C122,5.92029825 94.6893697,0.1 61,0.1 C27.3106303,0.1 0,5.92029825 0,13.1" id="Path--Back" stroke="#9ED0FB" stroke-width="2" stroke-linecap="round" stroke-dasharray="5,15"></path>
                <path d="M14.7198467,18.2791696 C14.260632,17.9665428 13.8883649,18.1614779 13.8883649,18.7223052 L13.8883649,25.5015116 C13.8883649,26.0588754 14.2542686,26.2616061 14.7198467,25.9446472 L19.5182411,22.6779693 C19.9774559,22.3653425 19.9838193,21.8628064 19.5182411,21.5458475 L14.7198467,18.2791696 Z" id="ArrowHead--Front" fill="#008AF3" transform="translate(16.888365, 22.112985) scale(-1, 1) rotate(-18.000000) translate(-16.888365, -22.112985) "></path>
                <path d="M105.719847,1.27916958 C105.260632,0.966542778 104.888365,1.16147791 104.888365,1.72230519 L104.888365,8.50151159 C104.888365,9.05887543 105.254269,9.26160611 105.719847,8.9446472 L110.518241,5.6779693 C110.977456,5.36534249 110.983819,4.86280639 110.518241,4.54584748 L105.719847,1.27916958 Z" id="ArrowHead--Back" fill="#008AF3" transform="translate(107.888365, 5.112985) scale(1, -1) rotate(-14.000000) translate(-107.888365, -5.112985) "></path>
            </g>
        </g>
    </g>
</svg>
